<svg width="31" height="37" viewBox="0 0 31 37" fill="none" xmlns="http://www.w3.org/2000/svg">
<path d="M15.5 0.222229C7.09745 0.222229 0 8.56831 0 18.4491C0 28.3299 7.09745 36.6759 15.5 36.6759C23.9025 36.6759 31 28.3299 31 18.4491C31 8.56831 23.9025 0.222229 15.5 0.222229ZM15.5 9.33566C18.1768 9.33566 20.15 11.6541 20.15 14.8037C20.15 17.9533 18.1768 20.2718 15.5 20.2718C12.8247 20.2718 10.85 17.9533 10.85 14.8037C10.85 11.6541 12.8247 9.33566 15.5 9.33566ZM7.5857 27.1469C8.97605 24.741 11.2948 23.137 13.95 23.137H17.05C19.7067 23.137 22.024 24.741 23.4143 27.1469C21.4334 29.6404 18.6232 31.2079 15.5 31.2079C12.3767 31.2079 9.5666 29.6404 7.5857 27.1469Z" fill="black"/>
</svg>
