<svg width="32" height="32" viewBox="0 0 32 32" fill="none" xmlns="http://www.w3.org/2000/svg">
<path d="M14.6667 18.6667C15.192 18.6667 15.7121 18.5632 16.1974 18.3622C16.6827 18.1612 17.1237 17.8665 17.4951 17.4951C17.8665 17.1237 18.1612 16.6827 18.3622 16.1974C18.5632 15.7121 18.6667 15.192 18.6667 14.6667C18.6667 14.1414 18.5632 13.6212 18.3622 13.1359C18.1612 12.6506 17.8665 12.2097 17.4951 11.8382C17.1237 11.4668 16.6827 11.1722 16.1974 10.9711C15.7121 10.7701 15.192 10.6667 14.6667 10.6667C13.6058 10.6667 12.5884 11.0881 11.8382 11.8382C11.0881 12.5884 10.6667 13.6058 10.6667 14.6667C10.6667 15.7275 11.0881 16.7449 11.8382 17.4951C12.5884 18.2452 13.6058 18.6667 14.6667 18.6667ZM4 8.33333C4 7.18406 4.45655 6.08186 5.2692 5.2692C6.08186 4.45655 7.18406 4 8.33333 4H23.6667C24.8159 4 25.9181 4.45655 26.7308 5.2692C27.5435 6.08186 28 7.18406 28 8.33333V23.6667C28 24.8159 27.5435 25.9181 26.7308 26.7308C25.9181 27.5435 24.8159 28 23.6667 28H8.33333C7.18406 28 6.08186 27.5435 5.2692 26.7308C4.45655 25.9181 4 24.8159 4 23.6667V8.33333ZM14.6667 20.6667C15.9127 20.6685 17.1281 20.2806 18.1427 19.5573L21.6267 23.04C21.7182 23.1383 21.8286 23.2171 21.9513 23.2717C22.0739 23.3264 22.2064 23.3558 22.3406 23.3581C22.4749 23.3605 22.6083 23.3358 22.7328 23.2855C22.8573 23.2352 22.9704 23.1603 23.0654 23.0654C23.1603 22.9704 23.2352 22.8573 23.2855 22.7328C23.3358 22.6083 23.3605 22.4749 23.3581 22.3406C23.3558 22.2064 23.3264 22.0739 23.2717 21.9513C23.2171 21.8286 23.1383 21.7182 23.04 21.6267L19.5573 18.1427C20.3366 17.0463 20.7248 15.72 20.6598 14.3765C20.5947 13.0331 20.0802 11.7504 19.1987 10.7345C18.3172 9.71858 17.1199 9.0283 15.7991 8.77447C14.4782 8.52065 13.1104 8.718 11.9151 9.33485C10.7199 9.9517 9.76655 10.9523 9.2082 12.1759C8.64984 13.3996 8.51884 14.7754 8.83621 16.0824C9.15359 17.3895 9.90093 18.552 10.9583 19.3833C12.0156 20.2147 13.3216 20.6666 14.6667 20.6667Z" fill="black"/>
</svg>
